<svg width="218" height="20" viewBox="0 0 218 20" fill="none" xmlns="http://www.w3.org/2000/svg">
<path d="M4 15.6435C7.61928 14.3406 10.9173 12.6727 14.8914 12.1836C19.5818 11.6063 24.2006 10.7214 28.9268 10.3633C33.6392 10.0063 38.307 9.54337 42.9923 8.87404C48.1959 8.13068 53.3326 8.35374 58.5472 7.92631C63.446 7.52477 68.4775 7.97875 73.3498 7.36971C78.7289 6.69732 84.1112 6.68754 89.5064 6.22641C97.3998 5.55176 105.172 4.81234 113.124 4.81234C119.676 4.81234 126.197 4 132.741 4C139.636 4 146.531 4 153.426 4C157.572 4 161.719 4 165.866 4C168.115 4 170.244 4.09147 172.47 4.39113C174.922 4.72121 177.429 4.47431 179.872 4.96277C185.684 6.12531 191.794 6.46617 197.668 7.18919C201.063 7.60709 204.47 7.99555 207.867 8.45283C209.2 8.63221 210.628 9.10785 211.959 9.14482C212.447 9.15837 213.089 8.96659 213.313 9.4156" stroke="#0058E6" stroke-width="8" stroke-linecap="round"/>
</svg>
