<svg width="72" height="72" viewBox="0 0 72 72" fill="none" xmlns="http://www.w3.org/2000/svg">
<path d="M27 36C32.79 36 37.5 31.29 37.5 25.5C37.5 19.71 32.79 15 27 15C21.21 15 16.5 19.71 16.5 25.5C16.5 31.29 21.21 36 27 36ZM27 21C29.49 21 31.5 23.01 31.5 25.5C31.5 27.99 29.49 30 27 30C24.51 30 22.5 27.99 22.5 25.5C22.5 23.01 24.51 21 27 21ZM27.15 51H14.31C17.28 49.5 22.41 48 27 48C27.33 48 27.69 48.03 28.02 48.03C29.04 45.84 30.81 44.04 32.94 42.6C30.75 42.21 28.68 42 27 42C19.98 42 6 45.51 6 52.5V57H27V52.5C27 51.99 27.06 51.48 27.15 51ZM49.5 43.5C43.98 43.5 33 46.53 33 52.5V57H66V52.5C66 46.53 55.02 43.5 49.5 43.5ZM53.13 38.04C55.41 36.75 57 34.32 57 31.5C57 27.36 53.64 24 49.5 24C45.36 24 42 27.36 42 31.5C42 34.32 43.59 36.75 45.87 38.04C46.95 38.64 48.18 39 49.5 39C50.82 39 52.05 38.64 53.13 38.04Z" fill="white"/>
</svg>
